# xmcd
#
# Track frame offsets:
# 150
# 11977
# 32692
# 46620
# 63557
# 79907
# 98976
# 124167
# 130197
# 150887
# 165420
# 179275
#
# Disc length: 2653 seconds
#
#
# Revision: 2
# Processed by: cddbd v1.5.1PL2 Copyright (c) Steve Scherf et al.
# Submitted via: FreeRIP 2.945 
#
DISCID=8f0a5b0c
DTITLE=Link Quatro - Obrigado
DYEAR=2005
DGENRE=Gospel
TTITLE0=Ouve-me Senhor
TTITLE1=Obrigado
TTITLE2=O Nome
TTITLE3=No Tempo de Deus
TTITLE4=Não Existe Outro Deus
TTITLE5=O Amor de Cristo
TTITLE6=Há Um Lugar Especial
TTITLE7=Entrega Tua Vida (A Capela)
TTITLE8=Alguém Que Eu Amo
TTITLE9=Eu Sempre Vou Acreditar
TTITLE10=Eu Vou Embora
TTITLE11=Ha Um Lgar Especial (Versao Rádio)
EXTD=Brazil - SAAS Music - Dadiva Produçoes
EXTT0=
EXTT1=
EXTT2=
EXTT3=
EXTT4=
EXTT5=
EXTT6=
EXTT7=
EXTT8=
EXTT9=
EXTT10=
EXTT11=
PLAYORDER=
